<svg width="12" height="12" viewBox="0 0 12 12" fill="none" xmlns="http://www.w3.org/2000/svg">
<path d="M2.65116 1.16509e-06C2.12681 1.16509e-06 1.61424 0.155489 1.17826 0.446803C0.742275 0.738116 0.402469 1.15217 0.201809 1.63661C0.0011487 2.12104 -0.0513531 2.6541 0.0509425 3.16838C0.153238 3.68265 0.405737 4.15505 0.776509 4.52582C1.14728 4.89659 1.61967 5.14909 2.13395 5.25138C2.64822 5.35368 3.18128 5.30118 3.66572 5.10052C4.15016 4.89986 4.56421 4.56005 4.85552 4.12407C5.14684 3.68809 5.30233 3.17551 5.30233 2.65116C5.30233 1.94803 5.02301 1.2737 4.52582 0.776509C4.02863 0.279319 3.3543 1.16509e-06 2.65116 1.16509e-06ZM2.65116 4.46512C2.2924 4.46512 1.94169 4.35873 1.64339 4.15941C1.34508 3.96009 1.11258 3.67679 0.975289 3.34533C0.837996 3.01388 0.802073 2.64915 0.872065 2.29728C0.942057 1.94541 1.11482 1.62219 1.3685 1.3685C1.62219 1.11482 1.94541 0.942057 2.29728 0.872065C2.64915 0.802073 3.01388 0.837996 3.34533 0.975289C3.67679 1.11258 3.96009 1.34508 4.15941 1.64339C4.35873 1.94169 4.46512 2.2924 4.46512 2.65116C4.46512 2.88938 4.4182 3.12525 4.32704 3.34533C4.23588 3.56541 4.10226 3.76538 3.93382 3.93382C3.76538 4.10226 3.56541 4.23588 3.34533 4.32704C3.12525 4.4182 2.88938 4.46512 2.65116 4.46512ZM9.34884 5.30233C9.87319 5.30233 10.3858 5.14684 10.8217 4.85552C11.2577 4.56421 11.5975 4.15016 11.7982 3.66572C11.9989 3.18128 12.0514 2.64822 11.9491 2.13395C11.8468 1.61967 11.5943 1.14728 11.2235 0.776509C10.8527 0.405737 10.3803 0.153238 9.86605 0.0509425C9.35178 -0.0513531 8.81872 0.0011487 8.33428 0.201809C7.84984 0.402469 7.43579 0.742275 7.14448 1.17826C6.85316 1.61424 6.69767 2.12681 6.69767 2.65116C6.69767 3.3543 6.97699 4.02863 7.47418 4.52582C7.97137 5.02301 8.6457 5.30233 9.34884 5.30233ZM9.34884 0.83721C9.7076 0.83721 10.0583 0.943597 10.3566 1.14292C10.6549 1.34224 10.8874 1.62554 11.0247 1.95699C11.162 2.28845 11.1979 2.65318 11.1279 3.00505C11.0579 3.35692 10.8852 3.68014 10.6315 3.93382C10.3778 4.18751 10.0546 4.36027 9.70272 4.43026C9.35085 4.50025 8.98612 4.46433 8.65467 4.32704C8.32321 4.18974 8.03991 3.95724 7.84059 3.65894C7.64127 3.36064 7.53488 3.00993 7.53488 2.65116C7.53488 2.17007 7.726 1.70869 8.06618 1.3685C8.40636 1.02832 8.86775 0.83721 9.34884 0.83721ZM2.65116 6.69767C2.12681 6.69767 1.61424 6.85316 1.17826 7.14448C0.742275 7.43579 0.402469 7.84984 0.201809 8.33428C0.0011487 8.81872 -0.0513531 9.35178 0.0509425 9.86605C0.153238 10.3803 0.405737 10.8527 0.776509 11.2235C1.14728 11.5943 1.61967 11.8468 2.13395 11.9491C2.64822 12.0514 3.18128 11.9989 3.66572 11.7982C4.15016 11.5975 4.56421 11.2577 4.85552 10.8217C5.14684 10.3858 5.30233 9.87319 5.30233 9.34884C5.30233 8.6457 5.02301 7.97137 4.52582 7.47418C4.02863 6.97699 3.3543 6.69767 2.65116 6.69767ZM2.65116 11.1628C2.2924 11.1628 1.94169 11.0564 1.64339 10.8571C1.34508 10.6578 1.11258 10.3745 0.975289 10.043C0.837996 9.71155 0.802073 9.34682 0.872065 8.99495C0.942057 8.64308 1.11482 8.31986 1.3685 8.06618C1.62219 7.81249 1.94541 7.63973 2.29728 7.56974C2.64915 7.49975 3.01388 7.53567 3.34533 7.67296C3.67679 7.81026 3.96009 8.04276 4.15941 8.34106C4.35873 8.63936 4.46512 8.99007 4.46512 9.34884C4.46512 9.58705 4.4182 9.82293 4.32704 10.043C4.23588 10.2631 4.10226 10.4631 3.93382 10.6315C3.76538 10.7999 3.56541 10.9336 3.34533 11.0247C3.12525 11.1159 2.88938 11.1628 2.65116 11.1628ZM9.34884 6.69767C8.82449 6.69767 8.31191 6.85316 7.87593 7.14448C7.43995 7.43579 7.10014 7.84984 6.89948 8.33428C6.69882 8.81872 6.64632 9.35178 6.74862 9.86605C6.85091 10.3803 7.10341 10.8527 7.47418 11.2235C7.84495 11.5943 8.31735 11.8468 8.83162 11.9491C9.3459 12.0514 9.87896 11.9989 10.3634 11.7982C10.8478 11.5975 11.2619 11.2577 11.5532 10.8217C11.8445 10.3858 12 9.87319 12 9.34884C12 8.6457 11.7207 7.97137 11.2235 7.47418C10.7263 6.97699 10.052 6.69767 9.34884 6.69767ZM9.34884 11.1628C8.99007 11.1628 8.63936 11.0564 8.34106 10.8571C8.04276 10.6578 7.81026 10.3745 7.67296 10.043C7.53567 9.71155 7.49975 9.34682 7.56974 8.99495C7.63973 8.64308 7.81249 8.31986 8.06618 8.06618C8.31986 7.81249 8.64308 7.63973 8.99495 7.56974C9.34682 7.49975 9.71155 7.53567 10.043 7.67296C10.3745 7.81026 10.6578 8.04276 10.8571 8.34106C11.0564 8.63936 11.1628 8.99007 11.1628 9.34884C11.1628 9.82993 10.9717 10.2913 10.6315 10.6315C10.2913 10.9717 9.82993 11.1628 9.34884 11.1628Z" fill="#3E3C3C"/>
</svg>
