<svg width="6" height="6" viewBox="0 0 6 6" fill="none" xmlns="http://www.w3.org/2000/svg">
<path d="M3 0.375C2.48083 0.375 1.97331 0.528953 1.54163 0.817392C1.10995 1.10583 0.773497 1.5158 0.574817 1.99546C0.376137 2.47511 0.324154 3.00291 0.42544 3.51211C0.526726 4.02131 0.776733 4.48904 1.14385 4.85616C1.51096 5.22327 1.97869 5.47327 2.48789 5.57456C2.99709 5.67585 3.52489 5.62386 4.00455 5.42518C4.4842 5.2265 4.89417 4.89005 5.18261 4.45837C5.47105 4.02669 5.625 3.51918 5.625 3C5.625 2.30381 5.34844 1.63613 4.85616 1.14384C4.36387 0.651562 3.69619 0.375 3 0.375ZM3 4.875C2.62916 4.875 2.26665 4.76503 1.95831 4.55901C1.64997 4.35298 1.40964 4.06014 1.26773 3.71753C1.12581 3.37492 1.08868 2.99792 1.16103 2.63421C1.23338 2.27049 1.41195 1.9364 1.67418 1.67417C1.9364 1.41195 2.27049 1.23337 2.63421 1.16103C2.99792 1.08868 3.37492 1.12581 3.71753 1.26773C4.06014 1.40964 4.35298 1.64996 4.55901 1.95831C4.76503 2.26665 4.875 2.62916 4.875 3C4.875 3.49728 4.67746 3.97419 4.32583 4.32582C3.9742 4.67746 3.49728 4.875 3 4.875Z" fill="#3E3C3C"/>
</svg>
